<?xml version="1.0" encoding="utf-8"?>
<!-- Generator: Adobe Illustrator 15.1.0, SVG Export Plug-In  -->
<!DOCTYPE svg PUBLIC "-//W3C//DTD SVG 1.1//EN" "http://www.w3.org/Graphics/SVG/1.1/DTD/svg11.dtd" [
	<!ENTITY ns_flows "http://ns.adobe.com/Flows/1.0/">
]>
<svg version="1.1"
	 xmlns="http://www.w3.org/2000/svg" xmlns:xlink="http://www.w3.org/1999/xlink" xmlns:a="http://ns.adobe.com/AdobeSVGViewerExtensions/3.0/"
	 x="0px" y="0px" width="512px" height="512px" viewBox="-3.197 -64.879 512 512"
	 overflow="visible" enable-background="new -3.197 -64.879 512 512" xml:space="preserve">
<defs>
</defs>
<path fill="#949494" d="M506.003,156.763l-69.861,192.35H52.689l72.152-192.44c6.135-16.335,25.449-29.726,42.896-29.726h317.374
	C502.56,126.946,511.983,140.372,506.003,156.763L506.003,156.763z"/>
<path fill="#949494" d="M30.776,317.188L95.15,145.542c10.721-28.697,41.933-50.33,72.587-50.33h276.584
	c0-17.546-14.194-31.74-31.734-31.74H190.426L158.687,0H31.74C14.194,0,0,14.193,0,31.739v253.895
	C0,302.834,13.7,316.627,30.776,317.188L30.776,317.188z"/>
</svg>
