<?xml version="1.0" encoding="utf-8"?>
<!-- Generator: Adobe Illustrator 15.1.0, SVG Export Plug-In . SVG Version: 6.00 Build 0)  -->
<!DOCTYPE svg PUBLIC "-//W3C//DTD SVG 1.1//EN" "http://www.w3.org/Graphics/SVG/1.1/DTD/svg11.dtd">
<svg version="1.1" id="Ebene_1" xmlns="http://www.w3.org/2000/svg" xmlns:xlink="http://www.w3.org/1999/xlink" x="0px" y="0px"
	 width="512px" height="512px" viewBox="0 0 512 512" enable-background="new 0 0 512 512" xml:space="preserve">
<path fill="#949494" d="M412.184,210.425l-0.111,1.148c0,0.13,0.111,0.269,0.111,0.398c0,0.288-0.111,0.554-0.133,0.867
	l-12.18,248.876h-0.088c-1.041,19.509-23.429,49.027-143.982,49.027c-120.534,0-142.897-29.519-143.957-49.027h-0.022
	l-12.16-248.876c-0.047-0.288-0.13-0.579-0.13-0.867c0-0.152,0.044-0.291,0.044-0.398l-0.044-1.148h0.13
	c0.44-2.104,1.636-4.169,3.543-6.134c15.612,15.764,77.97,18.377,152.596,18.377s137.051-2.613,152.574-18.377
	c1.926,1.965,3.232,4.03,3.564,6.134H412.184z M433.464,115.844v29.053c0,5.979-6.067,11.651-16.852,16.763
	c-28.411,13.312-89.685,22.567-160.812,22.567c-71.039,0-132.375-9.256-160.72-22.567c-10.856-5.112-16.876-10.784-16.876-16.763
	v-29.053c0-15.302,39.37-28.497,96.859-35.029V19.829c0-9.812,8.016-17.829,17.823-17.829h119.338c9.81,0,17.87,8.038,17.87,17.873
	v60.296C391.036,86.395,433.464,100.011,433.464,115.844L433.464,115.844z M297.786,53.682c0-10.651-1.461-19.376-3.255-19.376
	h-83.946c-1.774,0-3.261,8.725-3.261,19.376v24.34l4.922-0.285c13.906-0.8,28.519-1.24,43.508-1.24
	c14.529,0,28.547,0.44,42.032,1.148V53.682z M297.786,53.682"/>
</svg>
